<svg>
  <symbol id="vkontakte" viewBox="0 0 32 32" xmlns="http://www.w3.org/2000/svg">
    <path d="M15.83 25.176h1.63s.45-.09.723-.362c.27-.27.18-.724.18-.724s0-2.17.996-2.533c.994-.362 2.26 2.08 3.708 3.076.995.724 1.81.543 1.81.543l3.618-.09s1.9-.09.995-1.628c-.09-.09-.542-1.086-2.713-3.166-2.262-2.17-1.99-1.81.814-5.428 1.72-2.262 2.353-3.62 2.172-4.16-.18-.544-1.447-.453-1.447-.453h-4.16s-.272 0-.544.09c-.18.09-.36.453-.36.453s-.634 1.72-1.54 3.257c-1.808 3.076-2.532 3.257-2.894 3.076-.724-.452-.543-1.81-.543-2.804 0-2.985.452-4.252-.905-4.614-.452-.09-.814-.18-1.9-.18-1.447 0-2.714 0-3.438.36-.452.272-.814.725-.633.815.27 0 .905.18 1.176.633.452.543.452 1.9.452 1.9s.27 3.528-.543 3.98c-.543.27-1.357-.27-2.985-3.166-.814-1.447-1.447-3.076-1.447-3.076s.09-.27-.18-.452-.634-.27-.634-.27l-3.89.09s-.543 0-.814.27c-.18.27 0 .724 0 .724S5.608 18.483 9.045 22.1c3.166 3.258 6.785 3.077 6.785 3.077z"></path>
  </symbol>

  <symbol id="instagram" viewBox="0 0 32 32" xmlns="http://www.w3.org/2000/svg">
    <path d="M23.4 4H8.6C6.1 4 4 6.1 4 8.6v14.7C4 25.9 6.1 28 8.6 28h14.7c2.6 0 4.6-2.1 4.6-4.6V8.6c.1-2.5-2-4.6-4.5-4.6zm1.3 2.8h.5v4h-4.1V6.7l3.6.1zm-12.1 6.7c.8-1.1 2-1.8 3.4-1.8s2.7.7 3.4 1.8c.5.7.8 1.5.8 2.5 0 2.3-1.9 4.2-4.2 4.2s-4.2-1.9-4.2-4.2c0-.9.3-1.8.8-2.5zm13.1 9.9c0 1.3-1 2.3-2.3 2.3H8.6c-1.3 0-2.3-1-2.3-2.3v-9.8h3.6c-.3.8-.5 1.6-.5 2.5 0 3.6 2.9 6.6 6.6 6.6 3.6 0 6.6-2.9 6.6-6.6 0-.9-.2-1.7-.5-2.5h3.6v9.8z"></path>
  </symbol>

  <symbol id="telega" viewBox="0 0 32 32" xmlns="http://www.w3.org/2000/svg">
    <path d="M 23.326 28.341 C 23.121 28.341 22.919 28.28 22.743 28.163 L 16.144 23.686 L 12.605 26.233 C 12.013 26.658 11.179 26.359 10.992 25.654 L 9.217 18.921 L 2.866 16.491 C 2.119 16.206 1.963 15.218 2.584 14.715 C 2.664 14.648 2.756 14.594 2.853 14.557 L 26.998 4.948 C 27.734 4.636 28.533 5.239 28.436 6.033 C 28.431 6.059 28.428 6.087 28.422 6.114 L 24.348 27.498 C 24.254 27.986 23.826 28.341 23.326 28.341 Z M 16.723 21.568 L 22.604 25.557 L 25.773 8.917 L 14.319 19.938 L 16.696 21.55 C 16.706 21.556 16.714 21.562 16.723 21.568 Z M 11.83 20.683 L 12.619 23.664 L 14.313 22.444 L 12.092 20.937 C 11.991 20.87 11.902 20.782 11.83 20.683 Z M 6.096 15.501 L 10.456 17.169 C 10.768 17.289 11.003 17.551 11.089 17.874 L 11.642 19.97 C 11.668 19.727 11.78 19.5 11.956 19.329 L 22.868 8.828 L 6.096 15.501 Z"></path>
  </symbol>

  <symbol id="mail" viewBox="0 0 64 40" xmlns="http://www.w3.org/2000/svg">
    <path stroke-width="4" d="M0,36c0,1.104,0.896,2,2,2h58c1.104,0,2-0.896,2-2V2c0-1.104-0.896-2-2-2H2C0.896,0,0,0.896,0,2V36L0,36z"/>
    <path stroke-width="4" d="M62,2c0-1.104-31,22.032-31,22.032S0,1.144,0,2"/>
    <path stroke-width="4" d="M61,37L37,20"/>
    <path stroke-width="4" d="M1,37l24-17"/>
  </symbol>

  <symbol id="github"  viewBox="0 0 32 32" xmlns="http://www.w3.org/2000/svg">
    <path d="M16 3.987c-6.904 0-12.5 5.596-12.5 12.5 0 5.523 3.58 10.208 8.548 11.86.626.116.854-.27.854-.602 0-.296-.01-1.083-.017-2.125-3.477.755-4.21-1.676-4.21-1.676-.57-1.444-1.39-1.828-1.39-1.828-1.134-.776.087-.76.087-.76 1.255.088 1.915 1.288 1.915 1.288 1.115 1.91 2.926 1.358 3.638 1.04.113-.81.436-1.36.793-1.673-2.775-.313-5.694-1.386-5.694-6.176 0-1.364.488-2.48 1.287-3.354-.127-.317-.556-1.588.124-3.31 0 0 1.05-.335 3.438 1.283a11.964 11.964 0 0 1 3.13-.42c1.062.004 2.13.143 3.13.42 2.386-1.618 3.434-1.282 3.434-1.282.682 1.723.253 2.994.124 3.31.8.874 1.285 1.99 1.285 3.354 0 4.803-2.923 5.86-5.707 6.168.45.387.848 1.15.848 2.317 0 1.67-.015 3.017-.015 3.427 0 .335.225.724.86.602 4.963-1.658 8.54-6.34 8.54-11.86 0-6.905-5.596-12.5-12.5-12.5">
  </symbol>
</svg>
